<?xml version="1.0" encoding="UTF-8"?>
<svg id="Layer_1" xmlns="http://www.w3.org/2000/svg" version="1.1" viewBox="0 0 24 24">
  <!-- Generator: Adobe Illustrator 29.0.0, SVG Export Plug-In . SVG Version: 2.1.0 Build 186)  -->
  <path d="M13.4,10.6c.1.1.2.3.4.4l-.7.7c-.5-1-1.7-1.3-2.7-.8-.1,0-.2.1-.3.2h-.1c0,0-2.2,2.3-2.2,2.3-.8.8-.8,2,0,2.8.7.7,1.9.8,2.7.1h.1c0-.1,1.2-1.3,1.2-1.3l.7.7-1.2,1.2c-1.1,1.2-3,1.2-4.2,0-1.2-1.1-1.2-3,0-4.2,0,0,0,0,0,0l2.2-2.2c1.2-1.2,3-1.2,4.2,0M17,7c1.2,1.2,1.2,3,0,4.2l-2.2,2.2c-1.2,1.2-3,1.2-4.2,0-.1-.1-.2-.2-.3-.3l.7-.7c0,.1.2.2.3.4.7.7,1.9.8,2.7.1h.1c0-.1,2.2-2.3,2.2-2.3.8-.8.8-2,0-2.8-.7-.7-1.9-.8-2.7-.1h-.1c0,0-1.2,1.3-1.2,1.3l-.7-.7,1.2-1.2c1.2-1.2,3-1.2,4.2,0"/>
</svg>