<?xml version="1.0" encoding="UTF-8"?>
<svg id="Layer_1" xmlns="http://www.w3.org/2000/svg" version="1.1" viewBox="0 0 600 100">
  <!-- Generator: Adobe Illustrator 29.3.1, SVG Export Plug-In . SVG Version: 2.1.0 Build 151)  -->
  <defs>
    <style>
      .st0 {
        fill: #7765fd;
      }
    </style>
  </defs>
  <polygon class="st0" points="22.1432077 53.9854947 63.2044456 53.9854947 63.2044456 44.041823 22.1432077 44.041823 22.1432077 18.8904599 68.2346004 18.8904599 68.2346004 8.7135124 10.4452555 8.7135124 10.4452555 90.6015344 69.8728321 90.6015344 69.8728321 80.4234087 22.1432077 80.4234087 22.1432077 53.9854947"/>
  <polygon class="st0" points="147.5495206 69.7313107 98.4167074 8.7135124 88.8241274 8.7135124 88.8241274 90.6015344 100.5220796 90.6015344 100.5220796 29.5826315 149.6554819 90.6015344 159.2480619 90.6015344 159.2480619 8.7135124 147.5495206 8.7135124 147.5495206 69.7313107"/>
  <path class="st0" d="M251.839669,19.6515513c-3.9391785-3.7818941-8.5398939-6.7072658-13.8045026-8.7737587-5.2640196-2.0664929-11.0163866-3.1009175-17.2547446-3.1009175-6.3172948,0-12.1279807,1.0532752-17.4302905,3.1586474-5.3046661,2.1065504-9.9053816,5.0507726-13.8045026,8.8326667-3.9002992,3.7830723-6.9423087,8.20942-9.1242614,13.277865-2.1843089,5.0696232-3.2758743,10.6069759-3.2758743,16.6108801,0,6.0062605,1.0915654,11.5436133,3.2758743,16.6120583,2.1819526,5.0708013,5.2239622,9.4959709,9.1242614,13.277865,3.8991211,3.7830723,8.5198652,6.7261164,13.8628215,8.8314886,5.3411891,2.1065504,11.1318463,3.1586474,17.3719716,3.1586474,6.2383581,0,11.990725-1.0320683,17.2547446-3.0997394,5.2646087-2.0653148,9.8653241-4.9895083,13.8045026-8.7737587,3.9368222-3.7818941,6.9788317-8.2070637,9.1242614-13.277865,2.1442515-5.068445,3.2175554-10.6446771,3.2175554-16.7286961,0-6.0828409-1.0733039-11.6578948-3.2175554-16.7286961-2.1454297-5.068445-5.1874392-9.4936146-9.1242614-13.2766869ZM250.0847994,62.174886c-1.5993524,3.8219516-3.8219516,7.1561448-6.6683865,10.0014016-2.8476131,2.8476131-6.2000678,5.0507726-10.0603096,6.6094785-3.8602418,1.5610622-8.0533138,2.3398261-12.5756816,2.3398261-4.6024827,0-8.8320776-.7787639-12.6929085-2.3398261-3.8602418-1.5587059-7.2344925-3.7618654-10.1186285-6.6094785-2.8864924-2.8452568-5.1291203-6.17945-6.7267054-10.0014016-1.5993524-3.8207734-2.398145-7.9938167-2.398145-12.5179517,0-4.5217787.7987926-8.694822,2.398145-12.5167735,1.5975852-3.8207734,3.840213-7.1537885,6.7267054-10.0025798,2.8841361-2.8452568,6.2583868-5.0484163,10.1186285-6.6094785,3.8608308-1.5587059,8.0904258-2.3398261,12.6929085-2.3398261,4.5223678,0,8.7154398.7811202,12.5756816,2.3398261,3.8602418,1.5610622,7.2126965,3.7642217,10.0603096,6.6094785,2.8464349,2.8487913,5.0690341,6.1818064,6.6683865,10.0025798,1.5975852,3.8219516,2.398145,7.9949949,2.398145,12.5167735,0,4.524135-.8005598,8.6971783-2.398145,12.5179517Z"/>
  <path class="st0" d="M296.233922,27.0798511c2.8841361-2.8075557,6.2972661-4.9906864,10.2358555-6.5517487,3.9374113-1.5587059,8.2070637-2.3398261,12.8101354-2.3398261,4.4451983,0,8.6170634.8011489,12.5167735,2.3987341,3.8997101,1.5999415,7.4082711,4.0363767,10.5292174,7.311662l7.6038457-7.37057c-3.744193-4.2107444-8.2871786-7.3882424-13.6289567-9.533672-5.3429563-2.1442515-11.1713146-3.2175554-17.4886094-3.2175554-6.2407144,0-11.9913141,1.0344246-17.2553337,3.1009175-5.2640196,2.0664929-9.8470626,4.9918646-13.7455946,8.7737587-3.9002992,3.7830723-6.9423087,8.2082418-9.1242614,13.2766869-2.1843089,5.0708013-3.2758743,10.6458552-3.2758743,16.7286961,0,6.0840191,1.0915654,11.6602511,3.2758743,16.7286961,2.1819526,5.0708013,5.2057007,9.4959709,9.0665315,13.277865,3.8596527,3.7842504,8.422667,6.708444,13.6866866,8.7737587,5.2640196,2.0676711,11.0146193,3.0997394,17.2553337,3.0997394,6.3938752,0,12.262291-1.0909763,17.6052473-3.2752852,5.3417782-2.1819526,9.8847637-5.3806575,13.6289567-9.59258l-7.6038457-7.3693918c-3.1209463,3.354222-6.6295072,5.8307146-10.5292174,7.4282998-3.8997101,1.5987633-8.0715753,2.3975559-12.5167735,2.3975559-4.6030717,0-8.8727242-.7787639-12.8101354-2.3398261-3.9385894-1.5587059-7.3517194-3.7430148-10.2358555-6.5505705-2.8853142-2.8075557-5.1285312-6.1417489-6.7261164-10.0025798-1.5999415-3.8596527-2.3987341-8.0515465-2.3987341-12.5756816,0-4.5217787.7987926-8.7148507,2.3987341-12.5756816,1.5975852-3.8596527,3.8408021-7.1938459,6.7261164-10.0014016Z"/>
  <polygon class="st0" points="425.3826606 43.9251851 378.3552197 43.9251851 378.3552197 8.7135124 366.6572674 8.7135124 366.6572674 90.6015344 378.3552197 90.6015344 378.3552197 54.1033108 425.3826606 54.1033108 425.3826606 90.6015344 437.0806129 90.6015344 437.0806129 8.7135124 425.3826606 8.7135124 425.3826606 43.9251851"/>
  <path class="st0" d="M517.7999,8.7135124l-37.0837692,81.888022h12.049044l8.9960628-20.471711h43.5408232l8.9960628,20.471711h12.2834978l-37.2004071-81.888022h-11.5813144ZM505.874121,60.7705191l17.6575281-40.1818886,17.6575281,40.1818886h-35.3150563Z"/>
  <rect class="st0" x="578.7473032" y="8.7135124" width="11.6979522" height="81.888022"/>
</svg>